# xmcd
#
# Track frame offsets:
#	150
#	16646
#	31445
#	55062
#	68915
#	85944
#	101539
#	117588
#	135493
#	151784
#	168802
#	186375
#	203003
#	221020
#	243428
#	261985
#
# Disc length: 3742 seconds
#
# Revision: 0
# Processed by: cddbd v1.5.2PL0 Copyright (c) Steve Scherf et al.
# Submitted via: EasyCDDAExtractor 16.0.6.1
#
DISCID=d60e9c10
DTITLE=Παπαγκίκα Μαρίκα  - Σμυρναίϊκο μινόρε-Μ. Παπαγκίκα
DYEAR=1995
DGENRE=Ρεμπέτικη
TTITLE0=Βαρύτερα απ' τα σίδερα
TTITLE1=Σμυρναίϊκος Μπάλλος
TTITLE2=Μήλο μου και μανταρίνι
TTITLE3=Γκελ, Γκελ
TTITLE4=Τι σε μέλλει εσένανε
TTITLE5=Γαλάτα μανές
TTITLE6=Θα σπάσω κούπες
TTITLE7=Κουτσαβάκι
TTITLE8=Δυό ψαράκια μελανούρια
TTITLE9=Σαν τα μάρμαρα της Πόλης
TTITLE10=Κυρά Ντουντού
TTITLE11=Μανάκι μου
TTITLE12=Μπραϊλα
TTITLE13=Σμυρνέϊκο Μινόρε
TTITLE14=Η Έλλη
TTITLE15=Η Σμυρνιά
EXTD=
EXTT0=
EXTT1=
EXTT2=
EXTT3=
EXTT4=
EXTT5=
EXTT6=
EXTT7=
EXTT8=
EXTT9=
EXTT10=
EXTT11=
EXTT12=
EXTT13=
EXTT14=
EXTT15=
PLAYORDER=
